Coordinates
version=1
nRows=21
nColumns=22
inDegrees=yes

Units are S.I. units (second, meters, Newtons, ...)
If the header above contains a line with 'inDegrees', this indicates whether rotational values are in degrees (yes) or radians (no).

endheader
time	pelvis_tilt	pelvis_list	pelvis_rotation	pelvis_tx	pelvis_ty	pelvis_tz	hip_flexion_r	hip_adduction_r	hip_rotation_r	knee_angle_r	ankle_angle_r	subtalar_angle_r	hip_flexion_l	hip_adduction_l	hip_rotation_l	knee_angle_l	ankle_angle_l	subtalar_angle_l	lumbar_extension	lumbar_bending	lumbar_rotation
      4.74000000	      2.46883993	      1.06454614	   -171.86021730	     -0.65095239	      0.87755096	     -0.44489644	     22.75602960	     -2.08494708	     -2.55611103	    -21.83734587	      3.86909045	     -6.74328406	     15.26170332	    -12.26080240	     -4.91870312	    -66.72473784	      5.54615867	      5.52717772	     -2.85171289	      4.88114654	      5.49689874
      4.75000000	      2.34213672	      0.80429642	   -172.21041631	     -0.65669745	      0.87932945	     -0.44601550	     22.07690933	     -2.07901636	     -2.23327871	    -21.56447515	      4.08047902	     -6.89106035	     16.48072191	    -12.65689232	     -6.29651584	    -67.13607056	      6.34090914	      3.83719955	     -3.22481382	      4.53562155	      6.52582312
      4.76000000	      2.23115168	      0.47597509	   -172.64228606	     -0.66224150	      0.88107432	     -0.44703527	     21.43091746	     -2.14334492	     -1.81396888	    -21.28431847	      4.27460610	     -7.01012226	     17.56842396	    -12.86206633	     -7.62805959	    -67.24402753	      7.05527132	      2.55691039	     -3.58174429	      4.11550187	      7.61153849
      4.77000000	      2.14668188	      0.08301651	   -173.14259741	     -0.66757350	      0.88277611	     -0.44791309	     20.82111891	     -2.28498138	     -1.30802883	    -20.97916409	      4.45240741	     -7.09196260	     18.54383422	    -12.86806023	     -8.89057176	    -67.04882587	      7.64960406	      1.80090356	     -3.90552487	      3.62557559	      8.71991306
      4.78000000	      2.09201615	     -0.32241364	   -173.69077602	     -0.67269309	      0.88438333	     -0.44864917	     20.27234543	     -2.46178913	     -0.79866753	    -20.68013511	      4.60149044	     -7.13797363	     19.44166291	    -12.73529422	    -10.04341783	    -66.58171809	      8.17141998	      1.47974137	     -4.17939705	      3.12185037	      9.83412608
      4.79000000	      2.07774450	     -0.73118168	   -174.26919540	     -0.67758972	      0.88588280	     -0.44917874	     19.78314537	     -2.67305950	     -0.28729605	    -20.36221868	      4.70527527	     -7.15683024	     20.28629879	    -12.46767865	    -11.05999446	    -65.85161825	      8.61095107	      1.53432461	     -4.39198300	      2.62236847	     10.93588634
      4.80000000	      2.08204092	     -1.19452822	   -174.83414094	     -0.68230120	      0.88734084	     -0.44945315	     19.30338834	     -2.98130243	      0.21826030	    -20.00292585	      4.85141069	     -7.14143851	     21.04472177	    -11.99455682	    -11.89075441	    -64.83397409	      8.95452609	      1.96550222	     -4.56695845	      2.06901714	     11.94099573
      4.81000000	      2.11688395	     -1.61714185	   -175.36642293	     -0.68681251	      0.88868708	     -0.44949083	     18.86359894	     -3.29139668	      0.65571843	    -19.61825699	      4.92899373	     -7.06616163	     21.76894430	    -11.42648527	    -12.46403676	    -63.57612786	      9.28305380	      2.90199601	     -4.68570557	      1.56706232	     12.87817045
      4.82000000	      2.19346992	     -2.00016180	   -175.87196899	     -0.69119331	      0.88989368	     -0.44935426	     18.46436382	     -3.59225018	      1.05813685	    -19.20143445	      5.01598538	     -6.98641062	     22.45978176	    -10.80498067	    -12.83612612	    -62.09501830	      9.58302375	      3.93693786	     -4.72908061	      1.11128886	     13.71908533
      4.83000000	      2.29626208	     -2.33747916	   -176.33388918	     -0.69547806	      0.89099694	     -0.44904346	     18.08618376	     -3.88122898	      1.38766583	    -18.75489331	      5.05850636	     -6.88973424	     23.09185509	    -10.14486205	    -12.98194615	    -60.39487924	      9.88638974	      5.03882924	     -4.71626352	      0.70715956	     14.46175838
      4.84000000	      2.41406345	     -2.62905942	   -176.75062463	     -0.69970524	      0.89200921	     -0.44859492	     17.71225594	     -4.14861469	      1.66995523	    -18.28172265	      5.10104129	     -6.78455424	     23.64446916	     -9.46641861	    -12.91034433	    -58.49491934	     10.18894049	      6.09785545	     -4.66024333	      0.35308669	     15.09745697
      4.85000000	      2.53594254	     -2.87745262	   -177.12888410	     -0.70391154	      0.89295110	     -0.44805338	     17.33077356	     -4.38954784	      1.91962292	    -17.78767932	      5.14619288	     -6.67891584	     24.09231551	     -8.79025226	    -12.64022940	    -56.41092786	     10.48901014	      7.01734568	     -4.57360752	      0.04168184	     15.63366309
      4.86000000	      2.66112434	     -3.07247933	   -177.47238306	     -0.70815405	      0.89383174	     -0.44745520	     16.93477283	     -4.59138365	      2.11037899	    -17.26503412	      5.16217484	     -6.56634625	     24.42486091	     -8.15668382	    -12.20616243	    -54.16664642	     10.77675747	      7.78553982	     -4.45073443	     -0.21932259	     16.08190919
      4.87000000	      2.77305544	     -3.24319023	   -177.79889009	     -0.71243813	      0.89466946	     -0.44684503	     16.51870819	     -4.77234054	      2.30460688	    -16.74069397	      5.21951706	     -6.48756651	     24.61203833	     -7.55138220	    -11.63770306	    -51.77935407	     11.04614724	      8.24695970	     -4.31505682	     -0.46577377	     16.45121655
      4.88000000	      2.87256178	     -3.35194386	   -178.11694618	     -0.71677426	      0.89544957	     -0.44626611	     16.07987019	     -4.88776515	      2.49513444	    -16.20069495	      5.24896842	     -6.39706409	     24.66691008	     -7.03706905	    -10.94787417	    -49.30151501	     11.31835916	      8.57576666	     -4.16229633	     -0.65815628	     16.75441584
      4.89000000	      2.95419659	     -3.41797607	   -178.43523436	     -0.72116845	      0.89617758	     -0.44574436	     15.62456491	     -4.95339883	      2.70518724	    -15.67392423	      5.28045010	     -6.31741910	     24.58297226	     -6.60903178	    -10.18025846	    -46.75844435	     11.57687414	      8.70397773	     -3.99915324	     -0.82088755	     17.00270657
      4.90000000	      3.01680366	     -3.44124086	   -178.76480515	     -0.72561564	      0.89684048	     -0.44528024	     15.15798582	     -4.96871137	      2.93442826	    -15.16740962	      5.31846390	     -6.25683674	     24.37121499	     -6.27612488	     -9.36480585	    -44.19574820	     11.81360872	      8.63350930	     -3.82774481	     -0.94847092	     17.20572768
      4.91000000	      3.03738256	     -3.40878236	   -179.11431408	     -0.73013151	      0.89744916	     -0.44492436	     14.65466074	     -4.91461940	      3.19201807	    -14.68448240	      5.39345633	     -6.20340742	     24.02330861	     -6.06544220	     -8.53815836	    -41.66326688	     12.04188089	      8.35921622	     -3.67165376	     -1.03532217	     17.36595433
      4.92000000	      3.05375051	     -3.32718407	   -179.47526073	     -0.73467728	      0.89793748	     -0.44462221	     14.16778559	     -4.80616295	      3.45517858	    -14.24303353	      5.45830604	     -6.17729706	     23.60503982	     -5.95940057	     -7.71490538	    -39.20838289	     12.22098410	      7.95310373	     -3.49167752	     -1.08008986	     17.49374270
      4.93000000	      3.04051657	     -3.17560151	   -179.85444795	     -0.73924982	      0.89830827	     -0.44439052	     13.67568283	     -4.61674047	      3.74711088	    -13.86071630	      5.57798288	     -6.16265890	     23.11042417	     -5.97734340	     -6.91526193	    -36.88096610	     12.37319698	      7.40549068	     -3.32001490	     -1.05851994	     17.57960475
      4.94000000	      3.02247142	     -2.96167590	   -180.24186521	     -0.74380369	      0.89850730	     -0.44418368	     13.22595531	     -4.35948946	      4.05357844	    -13.57390780	      5.74593260	     -6.15971726	     22.58797903	     -6.09540182	     -6.14562253	    -34.71646857	     12.45211531	      6.79815670	     -3.13465348	     -0.97562427	     17.61748986
